<?xml version="1.0" ?><svg id="Guide" viewBox="0 0 32 32" xmlns="http://www.w3.org/2000/svg"><defs><style>.cls-1{fill:#231f20;}</style></defs><title/><path class="cls-1" d="M30,18a1,1,0,0,1-2,0A12,12,0,0,0,16,6,11.85,11.85,0,0,0,9.4,8l2.2,2.19A8.86,8.86,0,0,1,16,9a9,9,0,0,1,9,9,1,1,0,0,1-2,0,7,7,0,0,0-7-7,6.83,6.83,0,0,0-2.93.66L28.21,26.79a1,1,0,0,1,0,1.42,1,1,0,0,1-1.42,0L3.29,4.71A1,1,0,0,1,4.71,3.29L8,6.55A13.81,13.81,0,0,1,16,4,14,14,0,0,1,30,18ZM4.62,9.85A13.89,13.89,0,0,0,2,18a1,1,0,0,0,2,0,12,12,0,0,1,2.24-7A1,1,0,0,0,4.62,9.85Zm4.93,3.33a1,1,0,0,0-1.37.37A9,9,0,0,0,7,18a1,1,0,0,0,2,0,6.9,6.9,0,0,1,.92-3.45A1,1,0,0,0,9.55,13.18ZM16,20a2,2,0,0,1-2-2,1,1,0,0,0-2,0,4,4,0,0,0,3,3.86V27a1,1,0,0,0,2,0V21A1,1,0,0,0,16,20Z"/></svg>